<svg width="115" height="94" viewBox="0 0 115 94" fill="none" xmlns="http://www.w3.org/2000/svg">
<path fill-rule="evenodd" clip-rule="evenodd" d="M61.2355 1.55871V18.3428H2.14297V74.4745H61.2355V91.4483L112.008 46.5983L61.2355 1.55871Z" fill="#1B0B1C"/>
<path fill-rule="evenodd" clip-rule="evenodd" d="M76.2227 40.1303C76.2227 39.3971 75.6964 38.4975 75.0535 38.1309L63.8918 31.7681C63.2488 31.4015 62.1965 31.4015 61.5535 31.7681L50.3918 38.1309C49.7487 38.4974 49.2227 39.3972 49.2227 40.1303V52.856C49.2227 53.2226 49.3541 53.6309 49.5659 53.9933C49.7778 54.3556 50.0701 54.6722 50.3916 54.8554L61.5533 61.2182C61.8847 61.4072 62.3249 61.4987 62.7617 61.4929C62.8546 61.4917 62.9474 61.486 63.0389 61.476C63.3519 61.4416 63.6506 61.3557 63.8917 61.2182L75.0535 54.8554C75.375 54.6721 75.6673 54.3556 75.8791 53.9932C76.091 53.6308 76.2227 53.2226 76.2227 52.856V40.1303ZM62.7227 55.3796C57.76 55.3796 53.7227 51.3932 53.7227 46.4933C53.7227 41.5933 57.76 37.6069 62.7227 37.6069C65.9249 37.6069 68.9114 39.3084 70.5166 42.0473L66.6216 44.2727C65.8182 42.9018 64.3241 42.0501 62.7227 42.0501C60.2413 42.0501 58.2227 44.0433 58.2227 46.4933C58.2227 48.9432 60.2413 50.9364 62.7227 50.9364C64.3243 50.9364 65.8184 50.0847 66.6219 48.7136L70.5168 50.9389C68.9117 53.678 65.9251 55.3796 62.7227 55.3796ZM71.7225 45.9995H70.7224V45.0122H69.7225V45.9995H68.7225V46.9869H69.7225V47.9743H70.7224V46.9869H71.7225V45.9995ZM75.4728 45.9995H74.4728V45.0122H73.4729V45.9995H72.4728V46.9869H73.4729V47.9743H74.4728V46.9869H75.4728V45.9995Z" fill="white"/>
</svg>
