<svg width="116" height="146" viewBox="0 0 116 146" fill="none" xmlns="http://www.w3.org/2000/svg">
<path fill-rule="evenodd" clip-rule="evenodd" d="M0 145.935H101.879V22.9095L81.1444 2.11295H0V145.935Z" fill="#F49400"/>
<path fill-rule="evenodd" clip-rule="evenodd" d="M81.1737 22.9135L91.4991 12.5398L101.879 22.9135V43.7131L81.1737 22.9135Z" fill="#F08400"/>
<path fill-rule="evenodd" clip-rule="evenodd" d="M101.878 22.9307H81.173V2.14823L101.878 22.9307Z" fill="#D23F00"/>
<path fill-rule="evenodd" clip-rule="evenodd" d="M16.9816 97.9407H113.86V129.917H16.9816V97.9407Z" fill="#D24000"/>
<path fill-rule="evenodd" clip-rule="evenodd" d="M73.1316 42.8857H51.9417H39.5578L40.3585 51.9185H51.9417H72.3311L69.9244 78.9989L51.9417 84.0073L51.9266 84.0125L33.954 78.9989L32.698 64.835H41.5043L42.1598 72.1847L51.9318 74.8362L51.9417 74.8309L61.7235 72.1795L62.7445 60.7407H51.9417H32.3378L29.9662 34.0738H51.9417H73.9122L73.1316 42.8857Z" fill="#FEFEFE"/>
<path fill-rule="evenodd" clip-rule="evenodd" d="M45.2195 122.979V115.763H38.1284V122.979H34.2829V105.002H38.1284V112.116H45.2195V105.002H49.0649V122.979H45.2195ZM25.9834 122.979V118.871H30.0032V122.979H25.9834ZM61.0998 122.979V108.648H66.4184V105.002H51.9362V108.648H57.2546V122.979H61.0998ZM82.9605 122.979V111.242L78.0414 118.922H77.9415L73.0726 111.32V122.979H69.2773V105.002H73.4221L78.0164 112.604L82.6107 105.002H86.7558V122.979H82.9605ZM91.315 105.002V122.979H103.875V119.41H95.1602V105.002H91.315Z" fill="white"/>
</svg>
