<svg width="119" height="148" viewBox="0 0 119 148" fill="none" xmlns="http://www.w3.org/2000/svg">
<path fill-rule="evenodd" clip-rule="evenodd" d="M1.70719 146.176H103.586V23.15L82.8512 2.35331H1.70719V146.176Z" fill="#F20036"/>
<path fill-rule="evenodd" clip-rule="evenodd" d="M82.8808 23.1361L93.2062 12.7639L103.586 23.1361V43.9364L82.8808 23.1361Z" fill="#E10029"/>
<path fill-rule="evenodd" clip-rule="evenodd" d="M103.585 23.154H82.8799V2.3708L103.585 23.154Z" fill="#A8000A"/>
<path fill-rule="evenodd" clip-rule="evenodd" d="M80.6222 54.5361L67.721 56.9458L56.8887 42.1549L61.2435 32.2394L58.9572 25.6104L45.5118 26.4872L43.1167 30.705L50.4108 42.7582L40.7758 61.9869L23.139 65.2735L19.6006 76.9971L28.5825 86.3103L37.6186 86.2009L44.8041 69.7107L63.3664 64.3423L68.0478 72.0669L78.0637 71.19L83.8883 58.3708L80.6222 54.5361ZM48.941 31.1438L55.9088 31.7463L53.2414 37.0603L48.941 31.1438ZM32.4475 78.6394L29.3446 74.2029L35.55 72.3949L32.4475 78.6394ZM48.941 60.4518L54.058 48.784L59.937 58.4251L48.941 60.4518ZM71.4228 61.9869L76.3219 60.5619L73.3823 64.6711L71.4228 61.9869Z" fill="white"/>
<path fill-rule="evenodd" clip-rule="evenodd" d="M35.6658 98.1958H115.565V130.172H35.6658V98.1958Z" fill="#A8000A"/>
<path fill-rule="evenodd" clip-rule="evenodd" d="M46.8506 118.604V122.584H50.9591V118.604H46.8506ZM66.7426 115.818C67.3975 115.303 67.912 114.665 68.2865 113.902C68.6605 113.139 68.8478 112.252 68.8478 111.24V111.191C68.8478 110.294 68.6905 109.478 68.3757 108.739C68.0607 108.002 67.6103 107.367 67.0234 106.837C66.4363 106.306 65.7219 105.895 64.8796 105.605C64.0376 105.316 63.0806 105.169 62.0089 105.169H54.7104V122.584H58.6404V117.36H61.6262C62.6296 117.36 63.5694 117.232 64.4459 116.975C65.322 116.717 66.0874 116.331 66.7426 115.818ZM64.012 109.299C64.582 109.747 64.8669 110.403 64.8669 111.265V111.315C64.8669 112.062 64.5946 112.687 64.0505 113.193C63.5057 113.698 62.7403 113.951 61.7538 113.951H58.6404V108.628H61.6772C62.6636 108.628 63.4418 108.852 64.012 109.299ZM85.5755 120.072C86.4177 119.292 87.0684 118.372 87.5277 117.31C87.987 116.25 88.2169 115.105 88.2169 113.877V113.827C88.2169 112.6 87.987 111.46 87.5277 110.407C87.0684 109.353 86.4177 108.437 85.5755 107.657C84.7335 106.878 83.7295 106.268 82.5645 105.829C81.3989 105.389 80.1185 105.169 78.7237 105.169H71.7572V122.584H78.7237C80.1185 122.584 81.3989 122.36 82.5645 121.912C83.7295 121.465 84.7335 120.852 85.5755 120.072ZM83.7127 111.763C83.9764 112.409 84.1083 113.115 84.1083 113.877V113.927C84.1083 114.706 83.9764 115.411 83.7127 116.042C83.4489 116.672 83.0833 117.22 82.6154 117.683C82.1472 118.148 81.5819 118.505 80.9183 118.753C80.2549 119.001 79.5232 119.126 78.7237 119.126H75.687V108.628H78.7237C79.5232 108.628 80.2549 108.756 80.9183 109.013C81.5819 109.27 82.1472 109.632 82.6154 110.096C83.0833 110.56 83.4489 111.116 83.7127 111.763ZM95.6428 112.384V108.628H105.314V105.169H91.7128V122.584H95.6428V115.843H104.166V112.384H95.6428Z" fill="white"/>
</svg>
